PathFileType	4	(X/Y/Z)	D:\TRACE\spotREDO_2-26-24\spot_justBody_Motion_1_4-platform.trc
DataRate	CameraRate	NumFrames	NumMarkers	Units	OrigDataRate	OrigDataStartFrame	OrigNumFrames
100.00	100.00	      30	5	mm	100.00	3501	      7000
Frame#	Time	Left_Front			Right_Front			Left_Aft			Right_Aft			Post			
		X1	Y1	Z1	X2	Y2	Z2	X3	Y3	Z3	X4	Y4	Z4	X5	Y5	Z5	

3501	35.000	-745.38342	-10.05388	-577.05151	669.47327	-0.78926	-492.70190	-816.48767	11.01728	641.67920	753.45551	18.11147	645.21198	-35.59627	612.93427	-989.58478	
3502	35.010	-745.69623	-9.71077	-577.09613	668.90839	-0.38718	-492.85202	-816.72803	10.44165	641.81128	753.26483	17.72377	645.23877	-36.09855	613.34985	-989.67651	
3503	35.020	-745.97339	-9.26505	-577.02649	668.54901	0.01448	-492.58701	-817.02032	10.09994	641.95886	753.15240	17.36192	645.26996	-36.31409	614.16296	-989.43811	
3504	35.030	-746.08813	-8.80012	-576.88385	668.52588	0.32186	-492.34564	-817.32898	9.93142	642.07471	752.89410	16.85644	645.41272	-36.48750	614.84937	-989.19800	
3505	35.040	-746.25177	-8.45397	-576.79669	668.53583	0.71224	-492.15067	-817.65253	9.55657	642.18738	752.45947	16.38107	645.54407	-36.73604	615.52148	-988.53522	
3506	35.050	-746.53015	-7.97982	-576.66589	668.40289	1.13014	-492.12698	-817.86029	9.23440	642.38318	752.32245	15.93654	645.70483	-36.56624	615.92706	-987.79669	
3507	35.060	-746.69330	-7.64141	-576.56049	668.07764	1.46214	-492.17261	-818.00397	8.81574	642.52863	752.35309	15.52876	645.70483	-36.91216	616.77258	-987.38568	
3508	35.070	-746.83325	-7.37619	-576.48492	667.99634	1.72357	-491.93701	-818.12598	8.43074	642.69183	752.27173	15.31245	645.78461	-37.27688	617.57623	-986.92426	
3509	35.080	-747.01410	-6.90603	-576.37341	667.90381	1.98524	-491.81204	-818.29303	7.95116	642.76337	752.20953	14.85868	645.83087	-37.18206	618.10938	-985.85828	
3510	35.090	-746.99408	-6.57075	-576.26392	667.87964	2.36134	-491.81512	-818.30127	7.44367	642.90558	751.98248	14.41244	646.05090	-37.39424	618.87695	-985.31256	
3511	35.100	-747.00500	-6.25702	-576.16064	667.86011	2.64470	-491.75409	-818.32208	7.09160	642.95398	752.03693	13.51743	645.98547	-37.30761	619.57629	-984.73584	
3512	35.110	-746.97748	-5.94427	-576.17297	667.79700	2.85951	-491.64569	-818.35974	6.74348	642.99713	752.05316	13.22067	645.98730	-37.29772	620.11786	-983.96405	
3513	35.120	-747.13416	-5.43872	-575.97601	667.79321	3.22802	-491.39890	-818.35669	6.35693	643.09174	751.81464	13.15784	646.04987	-37.50693	620.61279	-983.33704	
3514	35.130	-747.16931	-4.92917	-575.91693	667.83984	3.55179	-491.37827	-818.35309	5.86951	643.18481	751.71112	12.78161	646.17206	-37.42228	621.29944	-982.75244	
3515	35.140	-747.08057	-4.61667	-575.76581	667.81262	3.92497	-491.26440	-818.42914	5.57896	643.22375	751.81836	12.50937	646.34387	-37.19709	621.95526	-982.64264	
3516	35.150	-747.03540	-4.25679	-575.72711	667.80548	4.44175	-491.26614	-818.46796	5.32855	643.38635	751.93774	12.14390	646.55658	-37.48754	622.66602	-982.80237	
3517	35.160	-747.24951	-3.84462	-575.64471	667.86023	4.75286	-491.11688	-818.51477	4.88161	643.58990	751.85614	11.65485	646.72046	-37.48415	623.18805	-982.69806	
3518	35.170	-747.28094	-3.51183	-575.60876	667.75970	5.04217	-490.93243	-818.37402	4.31041	643.67950	751.75110	11.13157	646.78094	-37.25606	623.89453	-982.08270	
3519	35.180	-747.31512	-3.17685	-575.52539	667.68921	5.28496	-490.90469	-818.22760	3.86565	643.74994	751.64795	10.70657	646.78668	-37.62425	624.37958	-981.87445	
3520	35.190	-747.27399	-2.65547	-575.38409	667.73486	5.58206	-490.83975	-818.29163	3.62887	643.84814	751.77106	10.33598	646.86987	-37.56285	625.12109	-981.04840	
3521	35.200	-747.06677	-2.21694	-575.18176	667.77039	5.96847	-490.74695	-818.22644	3.32355	643.88611	751.92120	10.10749	647.03680	-37.39307	625.67511	-980.44312	
3522	35.210	-746.89105	-1.89981	-575.03857	667.95142	6.26092	-490.56226	-818.13098	2.91037	644.00629	752.25146	9.70481	647.21564	-37.21726	626.48102	-979.86627	
3523	35.220	-746.33655	-1.93907	-575.01959	668.27960	6.70151	-490.46021	-817.83899	2.47116	644.08270	752.60413	9.28761	647.38037	-36.74704	627.15063	-978.81940	
3524	35.230	-746.12097	-1.61904	-575.02631	668.40363	6.88926	-490.44806	-817.34119	1.81299	644.16394	752.96234	8.75270	647.45184	-36.89129	627.86932	-978.33588	
3525	35.240	-745.88367	-1.04958	-574.83649	668.56989	7.19149	-490.30521	-817.10809	1.42682	644.33362	753.09845	8.35829	647.51245	-36.45664	628.47559	-977.63226	
3526	35.250	-745.61884	-0.56614	-574.71576	668.84131	7.53672	-490.22415	-816.88702	1.17875	644.35492	753.42609	7.92042	647.59009	-36.16476	628.93402	-977.01654	
3527	35.260	-745.39996	-0.25643	-574.64465	669.07794	7.91788	-490.13596	-816.88538	1.27955	644.48315	753.50140	7.59643	647.66113	-35.95564	629.61829	-976.62640	
3528	35.270	-745.32855	0.05766	-574.61847	669.28351	8.07051	-490.12930	-816.65771	0.72294	644.43347	753.58966	7.40797	647.73645	-35.74340	630.18823	-976.12964	
3529	35.280	-745.05029	0.49831	-574.53485	669.72791	8.55764	-490.15417	-816.23572	0.22587	644.58392	754.03827	6.93994	647.79340	-35.23981	630.49353	-975.85614	
3530	35.290	-744.64410	0.88551	-574.46509	670.20160	8.80861	-489.97299	-815.81030	-0.22887	644.76331	754.17230	6.64410	647.82922	-35.07332	631.06848	-976.05713	
